<?xml version="1.0" encoding="UTF-8"?>
<svg id="Layer_2" data-name="Layer 2" xmlns="http://www.w3.org/2000/svg" viewBox="0 0 486 147.04">
  <defs>
    <style>
      .cls-1 {
        fill: #193d78;
      }

      .cls-2 {
        fill: #59c5e6;
      }
    </style>
  </defs>
  <g id="Layer_1-2" data-name="Layer 1">
    <g>
      <g>
        <path class="cls-1" d="m195.9,49.68c-1.63-2.06-3.85-3.59-6.64-4.58-2.8-.99-5.44-1.48-7.93-1.48-1.46,0-2.97.17-4.51.52-1.55.34-3.01.88-4.39,1.61-1.38.73-2.5,1.7-3.35,2.9-.86,1.2-1.29,2.67-1.29,4.39,0,2.75,1.03,4.86,3.1,6.32,2.06,1.46,4.66,2.71,7.8,3.74,3.14,1.03,6.51,2.06,10.13,3.1s6.99,2.5,10.13,4.39c3.14,1.89,5.74,4.43,7.8,7.61,2.06,3.18,3.1,7.44,3.1,12.77s-.95,9.5-2.84,13.29c-1.89,3.79-4.45,6.92-7.67,9.42-3.22,2.5-6.97,4.34-11.22,5.55-4.26,1.2-8.75,1.81-13.48,1.81-5.93,0-11.44-.9-16.51-2.71-5.08-1.81-9.8-4.73-14.19-8.77l14.32-15.74c2.06,2.75,4.66,4.88,7.8,6.39,3.14,1.5,6.38,2.26,9.74,2.26,1.63,0,3.29-.19,4.97-.58,1.68-.39,3.18-.97,4.51-1.74,1.33-.77,2.41-1.76,3.22-2.97.82-1.2,1.23-2.62,1.23-4.26,0-2.75-1.05-4.92-3.16-6.51-2.11-1.59-4.75-2.94-7.93-4.06-3.18-1.12-6.62-2.24-10.32-3.35-3.7-1.12-7.14-2.62-10.32-4.51-3.18-1.89-5.83-4.39-7.93-7.48-2.11-3.1-3.16-7.18-3.16-12.25s.97-9.2,2.9-12.9c1.93-3.7,4.51-6.79,7.74-9.29,3.22-2.49,6.94-4.36,11.16-5.61,4.21-1.25,8.56-1.87,13.03-1.87,5.16,0,10.15.73,14.96,2.19,4.81,1.46,9.16,3.91,13.03,7.35l-13.8,15.09Z"/>
        <path class="cls-1" d="m247.11,27.36h16.64l39.73,91.33h-22.7l-7.87-19.35h-35.47l-7.61,19.35h-22.19l39.47-91.33Zm7.74,26.57l-11.09,28.38h22.31l-11.22-28.38Z"/>
        <path class="cls-1" d="m382.42,112.24c-5.93,3.1-12.13,5.33-18.57,6.71-6.45,1.38-13.03,2.06-19.74,2.06-7.14,0-13.72-1.12-19.74-3.35-6.02-2.24-11.22-5.44-15.61-9.61-4.39-4.17-7.8-9.22-10.26-15.16-2.45-5.93-3.68-12.55-3.68-19.86s1.23-13.93,3.68-19.86c2.45-5.93,5.87-10.98,10.26-15.16,4.39-4.17,9.59-7.37,15.61-9.61,6.02-2.24,12.6-3.35,19.74-3.35s14.04.88,20.19,2.64c6.15,1.76,11.54,4.79,16.19,9.09l-14.19,15.48c-2.75-2.84-5.85-4.99-9.29-6.45-3.44-1.46-7.74-2.19-12.9-2.19-4.3,0-8.19.73-11.67,2.19-3.48,1.46-6.47,3.51-8.96,6.13-2.5,2.63-4.41,5.74-5.74,9.35-1.33,3.61-2,7.53-2,11.74s.66,8.24,2,11.8c1.33,3.57,3.25,6.66,5.74,9.29,2.49,2.63,5.48,4.67,8.96,6.13,3.48,1.46,7.37,2.19,11.67,2.19s8.17-.49,11.35-1.48c3.18-.99,5.72-2,7.61-3.03v-14.83h-16.38v-18.57h35.73v47.73Z"/>
        <path class="cls-1" d="m387.45,73.02c0-7.31,1.23-13.93,3.68-19.86,2.45-5.93,5.87-10.98,10.26-15.16,4.39-4.17,9.59-7.37,15.61-9.61,6.02-2.24,12.6-3.35,19.74-3.35s13.71,1.12,19.74,3.35c6.02,2.24,11.22,5.44,15.61,9.61,4.39,4.17,7.81,9.22,10.26,15.16,2.45,5.93,3.68,12.56,3.68,19.86s-1.23,13.93-3.68,19.86c-2.45,5.93-5.87,10.99-10.26,15.16-4.39,4.17-9.59,7.37-15.61,9.61-6.02,2.24-12.6,3.35-19.74,3.35s-13.72-1.12-19.74-3.35c-6.02-2.24-11.22-5.44-15.61-9.61-4.39-4.17-7.8-9.22-10.26-15.16-2.45-5.93-3.68-12.55-3.68-19.86Zm20.9,0c0,4.3.66,8.24,2,11.8,1.33,3.57,3.25,6.66,5.74,9.29,2.49,2.63,5.48,4.67,8.96,6.13,3.48,1.46,7.37,2.19,11.67,2.19s8.19-.73,11.67-2.19c3.48-1.46,6.47-3.5,8.96-6.13,2.49-2.62,4.41-5.72,5.74-9.29,1.33-3.57,2-7.5,2-11.8s-.67-8.13-2-11.74c-1.33-3.61-3.25-6.73-5.74-9.35-2.49-2.62-5.48-4.66-8.96-6.13-3.48-1.46-7.38-2.19-11.67-2.19s-8.19.73-11.67,2.19c-3.48,1.46-6.47,3.51-8.96,6.13-2.5,2.63-4.41,5.74-5.74,9.35-1.33,3.61-2,7.53-2,11.74Z"/>
      </g>
      <g>
        <path class="cls-1" d="m116.3,97.21l-49.19,49.19c25.37-3.77,45.42-23.82,49.19-49.19Z"/>
        <g>
          <path class="cls-2" d="m28.08,23.81l4.34,4.34v7.35l-8.04-8.04c-3.69,3.87-7.04,8.07-9.99,12.56l18.02,18.02v7.35l-20.82-20.82c-2.81,4.91-5.17,10.11-7.01,15.54l27.82,27.82v7.35L2.89,65.77c-1.67,6.31-2.66,12.89-2.89,19.66l32.43,32.43v7.35L.1,92.88c1.83,24.92,19.27,45.49,42.58,52V12.74c-5.25,3.18-10.13,6.9-14.6,11.06Z"/>
          <path class="cls-1" d="m58.39,5.6v-.35c-3.53,1.28-6.95,2.78-10.26,4.48v136.4c3.35.59,6.78.92,10.3.92h0c.23,0,.46-.01.69-.02l57.8-57.8c0-.23.02-.46.02-.69v-21.88l-58.55,58.55v-7.35l58.55-58.55v-22.55l-58.55,58.55v-7.35l58.55-58.55V6.85l-58.55,58.55v-7.35L116.44,0h-22.55l-35.5,35.5v-7.35L86.49.05c-9.65.21-18.92,1.95-27.57,5.02l-.53.53Z"/>
        </g>
      </g>
    </g>
  </g>
</svg>