<?xml version="1.0" encoding="UTF-8"?>
<svg id="Layer_2" data-name="Layer 2" xmlns="http://www.w3.org/2000/svg" viewBox="0 0 152.89 46.26">
  <defs>
    <style>
      .cls-1 {
        fill: #193d78;
      }

      .cls-2 {
        fill: #59c5e6;
      }
    </style>
  </defs>
  <g id="Layer_1-2" data-name="Layer 1">
    <g>
      <g>
        <path class="cls-1" d="m61.63,15.63c-.51-.65-1.21-1.13-2.09-1.44-.88-.31-1.71-.47-2.5-.47-.46,0-.93.05-1.42.16-.49.11-.95.28-1.38.51-.43.23-.79.53-1.06.91-.27.38-.41.84-.41,1.38,0,.87.32,1.53.97,1.99.65.46,1.47.85,2.45,1.18.99.32,2.05.65,3.19.97s2.2.79,3.19,1.38c.99.6,1.81,1.39,2.45,2.39.65,1,.97,2.34.97,4.02s-.3,2.99-.89,4.18c-.6,1.19-1.4,2.18-2.41,2.96-1.01.79-2.19,1.37-3.53,1.74-1.34.38-2.75.57-4.24.57-1.87,0-3.6-.28-5.19-.85-1.6-.57-3.08-1.49-4.46-2.76l4.5-4.95c.65.87,1.47,1.54,2.45,2.01.99.47,2.01.71,3.06.71.51,0,1.03-.06,1.56-.18.53-.12,1-.3,1.42-.55.42-.24.76-.55,1.01-.93.26-.38.39-.82.39-1.34,0-.87-.33-1.55-.99-2.05-.66-.5-1.5-.93-2.5-1.28-1-.35-2.08-.7-3.25-1.05-1.16-.35-2.25-.82-3.25-1.42-1-.59-1.83-1.38-2.5-2.35-.66-.97-.99-2.26-.99-3.85s.3-2.89.91-4.06c.61-1.16,1.42-2.14,2.43-2.92,1.01-.78,2.18-1.37,3.51-1.77,1.32-.39,2.69-.59,4.1-.59,1.62,0,3.19.23,4.71.69,1.51.46,2.88,1.23,4.1,2.31l-4.34,4.75Z"/>
        <path class="cls-1" d="m77.74,8.61h5.23l12.5,28.73h-7.14l-2.48-6.09h-11.16l-2.39,6.09h-6.98l12.42-28.73Zm2.43,8.36l-3.49,8.93h7.02l-3.53-8.93Z"/>
        <path class="cls-1" d="m120.3,35.31c-1.87.97-3.81,1.68-5.84,2.11-2.03.43-4.1.65-6.21.65-2.25,0-4.32-.35-6.21-1.06-1.89-.7-3.53-1.71-4.91-3.02-1.38-1.31-2.45-2.9-3.23-4.77-.77-1.87-1.16-3.95-1.16-6.25s.39-4.38,1.16-6.25c.77-1.87,1.85-3.46,3.23-4.77,1.38-1.31,3.02-2.32,4.91-3.02,1.89-.7,3.96-1.06,6.21-1.06s4.42.28,6.35.83c1.93.55,3.63,1.51,5.09,2.86l-4.46,4.87c-.87-.89-1.84-1.57-2.92-2.03-1.08-.46-2.43-.69-4.06-.69-1.35,0-2.58.23-3.67.69-1.1.46-2.04,1.1-2.82,1.93-.79.83-1.39,1.81-1.81,2.94-.42,1.14-.63,2.37-.63,3.69s.21,2.59.63,3.71c.42,1.12,1.02,2.1,1.81,2.92.78.83,1.72,1.47,2.82,1.93,1.1.46,2.32.69,3.67.69s2.57-.16,3.57-.47c1-.31,1.8-.63,2.39-.95v-4.67h-5.15v-5.84h11.24v15.01Z"/>
        <path class="cls-1" d="m121.89,22.97c0-2.3.39-4.38,1.16-6.25.77-1.87,1.85-3.46,3.23-4.77,1.38-1.31,3.02-2.32,4.91-3.02,1.89-.7,3.96-1.06,6.21-1.06s4.31.35,6.21,1.06c1.89.7,3.53,1.71,4.91,3.02,1.38,1.31,2.46,2.9,3.23,4.77s1.16,3.95,1.16,6.25-.39,4.38-1.16,6.25-1.85,3.46-3.23,4.77c-1.38,1.31-3.02,2.32-4.91,3.02-1.89.7-3.96,1.06-6.21,1.06s-4.32-.35-6.21-1.06c-1.89-.7-3.53-1.71-4.91-3.02-1.38-1.31-2.45-2.9-3.23-4.77-.77-1.87-1.16-3.95-1.16-6.25Zm6.57,0c0,1.35.21,2.59.63,3.71.42,1.12,1.02,2.1,1.81,2.92.78.83,1.72,1.47,2.82,1.93,1.1.46,2.32.69,3.67.69s2.58-.23,3.67-.69c1.1-.46,2.04-1.1,2.82-1.93.78-.82,1.39-1.8,1.81-2.92.42-1.12.63-2.36.63-3.71s-.21-2.56-.63-3.69c-.42-1.14-1.02-2.12-1.81-2.94-.78-.82-1.72-1.47-2.82-1.93-1.1-.46-2.32-.69-3.67-.69s-2.58.23-3.67.69c-1.1.46-2.04,1.1-2.82,1.93-.79.83-1.39,1.81-1.81,2.94-.42,1.14-.63,2.37-.63,3.69Z"/>
      </g>
      <g>
        <path class="cls-1" d="m36.58,30.58l-15.48,15.48c7.98-1.19,14.29-7.49,15.48-15.48Z"/>
        <g>
          <path class="cls-2" d="m8.83,7.49l1.37,1.37v2.31l-2.53-2.53c-1.16,1.22-2.21,2.54-3.14,3.95l5.67,5.67v2.31l-6.55-6.55c-.88,1.54-1.62,3.18-2.2,4.89l8.75,8.75v2.31L.91,20.69c-.53,1.98-.84,4.05-.91,6.19l10.2,10.2v2.31L.03,29.22c.58,7.84,6.06,14.31,13.4,16.36V4.01c-1.65,1-3.19,2.17-4.59,3.48Z"/>
          <path class="cls-1" d="m18.37,1.76v-.11c-1.11.4-2.19.88-3.23,1.41v42.91c1.05.19,2.13.29,3.24.29h0c.07,0,.15,0,.22,0l18.18-18.18c0-.07,0-.15,0-.22v-6.88l-18.42,18.42v-2.31l18.42-18.42v-7.09l-18.42,18.42v-2.31l18.42-18.42V2.16l-18.42,18.42v-2.31L36.63,0h-7.09l-11.17,11.17v-2.31L27.21.02c-3.04.07-5.95.61-8.67,1.58l-.17.17Z"/>
        </g>
      </g>
    </g>
  </g>
</svg>