<?xml version="1.0" encoding="UTF-8"?>
<svg id="Layer_2" data-name="Layer 2" xmlns="http://www.w3.org/2000/svg" viewBox="0 0 237.37 71.82">
  <defs>
    <style>
      .cls-1 {
        fill: #193d78;
      }
    </style>
  </defs>
  <g id="Layer_1-2" data-name="Layer 1">
    <g>
      <g>
        <path class="cls-1" d="m95.68,24.26c-.8-1.01-1.88-1.75-3.24-2.24-1.37-.48-2.66-.72-3.87-.72-.71,0-1.45.08-2.2.25-.76.17-1.47.43-2.14.79-.67.36-1.22.83-1.64,1.42-.42.59-.63,1.3-.63,2.14,0,1.34.5,2.37,1.51,3.09,1.01.71,2.28,1.32,3.81,1.83,1.53.5,3.18,1.01,4.95,1.51s3.41,1.22,4.95,2.14c1.53.92,2.8,2.16,3.81,3.72,1.01,1.55,1.51,3.63,1.51,6.24s-.46,4.64-1.39,6.49c-.92,1.85-2.17,3.38-3.75,4.6-1.57,1.22-3.4,2.12-5.48,2.71-2.08.59-4.27.88-6.58.88-2.9,0-5.59-.44-8.06-1.32-2.48-.88-4.79-2.31-6.93-4.28l6.99-7.69c1.01,1.34,2.28,2.38,3.81,3.12,1.53.73,3.12,1.1,4.76,1.1.8,0,1.61-.09,2.43-.28.82-.19,1.55-.47,2.2-.85.65-.38,1.18-.86,1.57-1.45.4-.59.6-1.28.6-2.08,0-1.34-.51-2.4-1.54-3.18-1.03-.78-2.32-1.44-3.87-1.98-1.55-.55-3.23-1.09-5.04-1.64-1.81-.55-3.49-1.28-5.04-2.2-1.55-.92-2.85-2.14-3.87-3.65-1.03-1.51-1.54-3.51-1.54-5.98s.47-4.49,1.42-6.3c.94-1.81,2.2-3.32,3.78-4.54,1.57-1.22,3.39-2.13,5.45-2.74,2.06-.61,4.18-.91,6.36-.91,2.52,0,4.96.36,7.31,1.07,2.35.71,4.47,1.91,6.36,3.59l-6.74,7.37Z"/>
        <path class="cls-1" d="m120.69,13.36h8.13l19.4,44.6h-11.09l-3.84-9.45h-17.33l-3.72,9.45h-10.84l19.28-44.6Zm3.78,12.98l-5.42,13.86h10.9l-5.48-13.86Z"/>
        <path class="cls-1" d="m186.78,54.82c-2.9,1.51-5.92,2.6-9.07,3.28-3.15.67-6.36,1.01-9.64,1.01-3.49,0-6.7-.55-9.64-1.64-2.94-1.09-5.48-2.66-7.62-4.69-2.14-2.04-3.81-4.5-5.01-7.4-1.2-2.9-1.8-6.13-1.8-9.7s.6-6.8,1.8-9.7c1.2-2.9,2.87-5.36,5.01-7.4,2.14-2.04,4.68-3.6,7.62-4.69,2.94-1.09,6.15-1.64,9.64-1.64s6.86.43,9.86,1.29c3,.86,5.64,2.34,7.91,4.44l-6.93,7.56c-1.34-1.39-2.86-2.44-4.54-3.15-1.68-.71-3.78-1.07-6.3-1.07-2.1,0-4,.36-5.7,1.07-1.7.71-3.16,1.71-4.38,2.99-1.22,1.28-2.15,2.8-2.8,4.57-.65,1.76-.98,3.68-.98,5.73s.32,4.02.98,5.76c.65,1.74,1.59,3.25,2.8,4.54,1.22,1.28,2.68,2.28,4.38,2.99,1.7.71,3.6,1.07,5.7,1.07s3.99-.24,5.54-.72c1.55-.48,2.79-.98,3.72-1.48v-7.25h-8v-9.07h17.45v23.31Z"/>
        <path class="cls-1" d="m189.23,35.67c0-3.57.6-6.8,1.8-9.7,1.2-2.9,2.87-5.36,5.01-7.4,2.14-2.04,4.68-3.6,7.62-4.69,2.94-1.09,6.15-1.64,9.64-1.64s6.7.55,9.64,1.64c2.94,1.09,5.48,2.66,7.62,4.69,2.14,2.04,3.81,4.5,5.01,7.4s1.8,6.13,1.8,9.7-.6,6.8-1.8,9.7-2.87,5.37-5.01,7.4c-2.14,2.04-4.68,3.6-7.62,4.69-2.94,1.09-6.15,1.64-9.64,1.64s-6.7-.55-9.64-1.64c-2.94-1.09-5.48-2.66-7.62-4.69-2.14-2.04-3.81-4.5-5.01-7.4-1.2-2.9-1.8-6.13-1.8-9.7Zm10.21,0c0,2.1.32,4.02.98,5.76.65,1.74,1.59,3.25,2.8,4.54,1.22,1.28,2.68,2.28,4.38,2.99,1.7.71,3.6,1.07,5.7,1.07s4-.36,5.7-1.07c1.7-.71,3.16-1.71,4.38-2.99,1.22-1.28,2.15-2.79,2.8-4.54.65-1.74.98-3.66.98-5.76s-.33-3.97-.98-5.73c-.65-1.76-1.59-3.29-2.8-4.57-1.22-1.28-2.68-2.28-4.38-2.99-1.7-.71-3.6-1.07-5.7-1.07s-4,.36-5.7,1.07c-1.7.71-3.16,1.71-4.38,2.99-1.22,1.28-2.15,2.8-2.8,4.57-.65,1.76-.98,3.68-.98,5.73Z"/>
      </g>
      <g>
        <path class="cls-1" d="m56.8,47.48l-24.03,24.03c12.39-1.84,22.19-11.64,24.03-24.03Z"/>
        <g>
          <path class="cls-1" d="m13.72,11.63l2.12,2.12v3.59l-3.92-3.92c-1.8,1.89-3.44,3.94-4.88,6.14l8.8,8.8v3.59l-10.17-10.17c-1.37,2.4-2.52,4.94-3.42,7.59l13.59,13.59v3.59L1.41,32.12c-.82,3.08-1.3,6.29-1.41,9.6l15.84,15.84v3.59L.05,45.36c.9,12.17,9.41,22.22,20.8,25.4V6.22c-2.56,1.55-4.95,3.37-7.13,5.4Z"/>
          <path class="cls-1" d="m28.52,2.73v-.17c-1.73.62-3.4,1.36-5.01,2.19v66.62c1.63.29,3.31.45,5.03.45h0c.11,0,.23,0,.34,0l28.23-28.23c0-.11,0-.23,0-.34v-10.68l-28.6,28.6v-3.59l28.6-28.6v-11.01l-28.6,28.6v-3.59l28.6-28.6V3.35l-28.6,28.6v-3.59L56.87,0h-11.01l-17.34,17.34v-3.59L42.24.02c-4.71.1-9.24.95-13.46,2.45l-.26.26Z"/>
        </g>
      </g>
    </g>
  </g>
</svg>