<svg xmlns="http://www.w3.org/2000/svg" viewBox="0 0 57 72" width="32" height="32">
  <g>
    <path fill="#59C5E6" d="m56.8,47.48l-24.03,24.03c12.39-1.84,22.19-11.64,24.03-24.03Z"/>
    <path fill="#193D78" d="m13.72,11.63l2.12,2.12v3.59l-3.92-3.92c-1.8,1.89-3.44,3.94-4.88,6.14l8.8,8.8v3.59l-10.17-10.17c-1.37,2.4-2.52,4.94-3.42,7.59l13.59,13.59v3.59L1.41,32.12c-.82,3.08-1.3,6.29-1.41,9.6l15.84,15.84v3.59L.05,45.36c.9,12.17,9.41,22.22,20.8,25.4V6.22c-2.56,1.55-4.95,3.37-7.13,5.4Z"/>
    <path fill="#59C5E6" d="m28.52,2.73v-.17c-1.73.62-3.4,1.36-5.01,2.19v66.62c1.63.29,3.31.45,5.03.45h0c.11,0,.23,0,.34,0l28.23-28.23c0-.11,0-.23,0-.34v-10.68l-28.6,28.6v-3.59l28.6-28.6v-11.01l-28.6,28.6v-3.59l28.6-28.6V3.35l-28.6,28.6v-3.59L56.87,0h-11.01l-17.34,17.34v-3.59L42.24.02c-4.71.1-9.24.95-13.46,2.45l-.26.26Z"/>
  </g>
</svg>
